<?xml version="1.0" encoding="UTF-8" standalone="no"?>
<!-- Created with Inkscape (http://www.inkscape.org/) -->

<svg
   width="272.89252mm"
   height="272.37259mm"
   viewBox="0 0 272.89252 272.37259"
   version="1.1"
   id="svg1"
   xml:space="preserve"
   inkscape:version="1.3.2 (091e20ef0f, 2023-11-25)"
   sodipodi:docname="blue-chi-mark.svg"
   inkscape:export-filename="blue-chi.png"
   inkscape:export-xdpi="100"
   inkscape:export-ydpi="100"
   xmlns:inkscape="http://www.inkscape.org/namespaces/inkscape"
   xmlns:sodipodi="http://sodipodi.sourceforge.net/DTD/sodipodi-0.dtd"
   xmlns:xlink="http://www.w3.org/1999/xlink"
   xmlns="http://www.w3.org/2000/svg"
   xmlns:svg="http://www.w3.org/2000/svg"><sodipodi:namedview
     id="namedview1"
     pagecolor="#ffffff"
     bordercolor="#000000"
     borderopacity="0.25"
     inkscape:showpageshadow="2"
     inkscape:pageopacity="0.0"
     inkscape:pagecheckerboard="0"
     inkscape:deskcolor="#d1d1d1"
     inkscape:document-units="mm"
     inkscape:zoom="0.44838445"
     inkscape:cx="13.381374"
     inkscape:cy="992.4519"
     inkscape:window-width="1920"
     inkscape:window-height="1115"
     inkscape:window-x="0"
     inkscape:window-y="0"
     inkscape:window-maximized="1"
     inkscape:current-layer="layer1"
     showguides="false"
     showgrid="false"><sodipodi:guide
       position="357.22449,53.875857"
       orientation="0,-1"
       id="guide115"
       inkscape:locked="false" /><sodipodi:guide
       position="346.39309,100.75092"
       orientation="0,-1"
       id="guide116"
       inkscape:locked="false" /><sodipodi:guide
       position="526.94029,114.37709"
       orientation="0,-1"
       id="guide117"
       inkscape:locked="false" /><sodipodi:guide
       position="514.83999,179.89208"
       orientation="0,-1"
       id="guide118"
       inkscape:locked="false" /><sodipodi:guide
       position="391.04309,66.301052"
       orientation="1,0"
       id="guide119"
       inkscape:locked="false" /><sodipodi:guide
       position="405.27409,63.214075"
       orientation="1,0"
       id="guide120"
       inkscape:locked="false" /><sodipodi:guide
       position="709.05109,165.28672"
       orientation="0,-1"
       id="guide131"
       inkscape:locked="false" /><sodipodi:guide
       position="735.79949,218.7854"
       orientation="0,-1"
       id="guide132"
       inkscape:locked="false" /><inkscape:page
       x="-1.2830088e-05"
       y="-8.8667711e-08"
       width="272.89252"
       height="272.37259"
       id="page7"
       margin="0"
       bleed="0" /></sodipodi:namedview><defs
     id="defs1" /><g
     inkscape:label="Layer 1"
     inkscape:groupmode="layer"
     id="layer1"
     transform="translate(-1505.4873,-7.0373068)"><g
       id="g106"
       transform="matrix(1.0495486,0,0,1.0495486,47.048113,-171.13708)"><text
         xml:space="preserve"
         style="font-style:italic;font-weight:bold;font-size:5.86117px;line-height:1.1;font-family:Montserrat;-inkscape-font-specification:'Montserrat Bold Italic';text-decoration-color:#000000;fill:#51a2da;stroke:none;stroke-width:0.736417;-inkscape-stroke:none;paint-order:fill markers stroke"
         id="text63"
         transform="matrix(0.83221638,0.09061671,-0.09061671,0.83221638,41.303259,35.595838)"><textPath
           xlink:href="#path68"
           id="textPath68"
           style="font-style:normal;font-variant:normal;font-weight:600;font-stretch:normal;font-size:5.86117px;font-family:Montserrat;-inkscape-font-specification:'Montserrat Semi-Bold';fill:#51a2da;stroke:none;stroke-width:0.736417">BLUE <tspan
   style="fill:#dedede"
   id="tspan72">chi</tspan></textPath></text><path
         style="opacity:1;fill:none;stroke:none;stroke-width:0.950678;stroke-linecap:round;stroke-linejoin:round;stroke-dasharray:none;paint-order:fill markers stroke"
         d="m 98.646611,280.72637 c 0,0 11.430539,8.39511 27.792609,-3.79446"
         id="path68"
         sodipodi:nodetypes="cc" /></g><g
       id="g38"
       transform="translate(-7.9375004)"><path
         id="path6"
         style="fill:#294172;stroke:#294172;stroke-width:1.68829;paint-order:markers fill stroke"
         d="m 1595.8906,239.04982 c 0,0 17.3089,10.91052 56.7094,17.36692 39.4005,6.45641 51.2515,-17.36692 51.2515,-17.36692 v 21.09386 c 0,0 -11.4337,18.42208 -53.9803,18.42208 -42.5466,0 -53.9806,-18.42208 -53.9806,-18.42208 z"
         sodipodi:nodetypes="czcczcc" /><path
         d="m 1773.8591,7.0373161 c -30.4674,-0.021983 -71.3897,40.2771799 -91.3428,67.3463099 -28.6577,-10.959556 -46.9084,-10.293117 -71.0365,-0.697153 -21.2529,-26.300602 -59.3607,-66.2038749 -86.0712,-66.3132177 -26.7104,-0.109344 -1.4096,112.7979047 5.4327,122.6638247 6.8424,9.86591 12.2467,-0.51595 22.3,25.91779 10.0532,26.43374 17.2209,82.63609 61.4851,101.06411 11.6551,4.85227 25.3092,6.48316 35.2511,6.32932 9.9425,0.15439 23.3683,-2.34906 34.1958,-6.32932 47.398,-17.42386 47.1985,-74.63037 57.2518,-101.06411 10.0533,-26.43379 15.4582,-16.05188 22.3005,-25.91779 6.5216,-9.4035 40.7009,-122.9777855 10.2335,-122.9997639 z"
         style="fill:#51a2da;stroke-width:5.49459;stroke-linecap:round;stroke-linejoin:round;paint-order:fill markers stroke"
         id="path33"
         sodipodi:nodetypes="sccsssscssss" /><g
         id="g25"
         transform="matrix(5.4945854,0,0,5.4945854,-639.79471,-717.14772)"
         style="fill:#294172"><circle
           style="fill:#294172;stroke-width:0.267758;-inkscape-stroke:none;paint-order:fill markers stroke"
           id="circle13"
           cx="408.25061"
           cy="161.50337"
           r="1.8955381" /><circle
           style="fill:#294172;stroke-width:0.267758;-inkscape-stroke:none;paint-order:fill markers stroke"
           id="circle14"
           cx="425.23276"
           cy="161.34288"
           r="1.8384005" /></g><g
         id="g37"><path
           style="fill:#db3279;stroke-width:5.31332;stroke-dasharray:none;-inkscape-stroke:none;paint-order:fill markers stroke"
           d="m 1607.0755,229.7904 c 0,0 -10.7373,18.69331 4.4412,22.3161 15.1783,3.62281 10.0292,-13.75792 28.4272,-25.49381 -10.9533,-0.56842 -25.4344,14.00391 -29.9922,2.44575 z"
           id="path9-5"
           sodipodi:nodetypes="czccc" /><g
           id="g24"
           transform="matrix(5.4945854,0,0,5.4945854,-644.42672,-717.14772)"
           style="fill:#294172"><g
             id="g22"><g
               id="g26"><path
                 style="fill:none;stroke:#294172;stroke-width:1.04548;stroke-linecap:round;stroke-linejoin:round;stroke-dasharray:none;paint-order:fill markers stroke"
                 d="m 417.77267,169.59034 c 0,0 4.2719,6.26815 8.87167,1.19384"
                 id="path17"
                 sodipodi:nodetypes="cc" /><path
                 style="fill:none;stroke:#294172;stroke-width:1.04548;stroke-linecap:round;stroke-linejoin:round;stroke-dasharray:none;paint-order:fill markers stroke"
                 d="m 417.33959,169.59034 c 0,0 -4.2719,6.26815 -8.87167,1.19384"
                 id="path18"
                 sodipodi:nodetypes="cc" /></g><circle
               style="fill:#294172;stroke-width:0.267758;-inkscape-stroke:none;paint-order:fill markers stroke"
               id="circle18"
               cx="417.55612"
               cy="168.08551"
               r="1.8384005" /><ellipse
               style="fill:#294172;stroke-width:0.339273;-inkscape-stroke:none;paint-order:fill markers stroke"
               id="ellipse18"
               cx="417.55612"
               cy="167.2692"
               rx="2.9515786"
               ry="1.8384005" /></g></g></g></g><path
       style="display:none;fill:none;stroke:#e59728;stroke-width:1.5;paint-order:markers fill stroke"
       id="path97"
       sodipodi:type="arc"
       sodipodi:cx="-759.24493"
       sodipodi:cy="203.47704"
       sodipodi:rx="94.649513"
       sodipodi:ry="40.453171"
       sodipodi:start="0.76445421"
       sodipodi:end="5.401794"
       sodipodi:arc-type="arc"
       sodipodi:open="true"
       transform="scale(-1,1)"
       d="m -690.93068,231.47642 a 94.649513,40.453171 0 0 1 -132.09597,1.88934 94.649513,40.453171 0 0 1 -7.72338,-56.39285 94.649513,40.453171 0 0 1 131.70959,-4.71054" /></g></svg>
